<?xml version="1.0" encoding="UTF-8"?><svg id="Layer_1" xmlns="http://www.w3.org/2000/svg" viewBox="0 0 705 154.63"><defs><style>.cls-1{fill:#231f20;stroke-width:0px;}</style></defs><path class="cls-1" d="M0,33.09C3.1,0,77.61,0,77.61,0c0,0,74.51,0,77.61,33.09v118.25h-35.22V46.06c-6.58-12.39-42.38-12.39-42.38-12.39,0,0-35.8,0-42.38,12.39v105.28H0V33.09Z"/><path class="cls-1" d="M320.86,121.54c-3.1,33.09-77.61,33.09-77.61,33.09,0,0-74.51,0-77.61-33.09V33.09C168.75,0,243.26,0,243.26,0c0,0,74.51,0,77.61,33.09v88.44ZM285.64,46.06c-6.58-12.58-42.38-12.58-42.38-12.58,0,0-35.8,0-42.38,12.58v62.51c6.58,12.39,42.38,12.39,42.38,12.39,0,0,35.8,0,42.58-12.39l-.19-62.51Z"/><path class="cls-1" d="M366.53,151.34h-35.22V3.48h35.22v147.86Z"/><path class="cls-1" d="M414.33,95.02c-39.09,0-39.09-45.48-39.09-45.48,0,0,0-46.06,38.51-46.06h125.99v35.42h-120.57c-6.19,0-6.19,10.64-6.19,10.64,0,0,0,10.06,6.19,10.06h83.22c39.09,0,39.09,45.67,39.09,45.67,0,0,0,46.06-38.32,46.06h-126.18v-35.42h120.57c6.19,0,6.19-10.64,6.19-10.64,0,0,0-10.26-6.19-10.26h-83.22Z"/><path class="cls-1" d="M551.92,151.34V3.48h153.08v35.42h-117.86v77.02h117.86v35.42h-153.08ZM612.3,59.61h92.7v35.42h-65.99l-26.71-35.42Z"/></svg>