<?xml version="1.0" encoding="utf-8"?>
<!-- Generator: Adobe Illustrator 28.3.0, SVG Export Plug-In . SVG Version: 6.00 Build 0)  -->
<svg version="1.1" id="Layer_1" xmlns="http://www.w3.org/2000/svg" xmlns:xlink="http://www.w3.org/1999/xlink" x="0px" y="0px"
	 viewBox="0 0 705 154.6" style="enable-background:new 0 0 705 154.6;" xml:space="preserve">
<style type="text/css">
	.st0{fill:#D8D8D8;}
</style>
<path class="st0" d="M0,33.1C3.1,0,77.6,0,77.6,0s74.5,0,77.6,33.1v118.2H120V46.1c-6.6-12.4-42.4-12.4-42.4-12.4s-35.8,0-42.4,12.4
	v105.3H0V33.1z"/>
<path class="st0" d="M320.9,121.5c-3.1,33.1-77.6,33.1-77.6,33.1s-74.5,0-77.6-33.1V33.1C168.8,0,243.3,0,243.3,0s74.5,0,77.6,33.1
	L320.9,121.5L320.9,121.5z M285.6,46.1c-6.6-12.6-42.4-12.6-42.4-12.6s-35.8,0-42.4,12.6v62.5c6.6,12.4,42.4,12.4,42.4,12.4
	s35.8,0,42.6-12.4L285.6,46.1L285.6,46.1z"/>
<path class="st0" d="M366.5,151.3h-35.2V3.5h35.2V151.3z"/>
<path class="st0" d="M414.3,95c-39.1,0-39.1-45.5-39.1-45.5s0-46.1,38.5-46.1h126v35.4H419.2c-6.2,0-6.2,10.6-6.2,10.6
	s0,10.1,6.2,10.1h83.2c39.1,0,39.1,45.7,39.1,45.7s0,46.1-38.3,46.1H377v-35.4h120.6c6.2,0,6.2-10.6,6.2-10.6s0-10.3-6.2-10.3
	L414.3,95L414.3,95z"/>
<path class="st0" d="M551.9,151.3V3.5H705v35.4H587.1v77H705v35.4H551.9z M612.3,59.6H705V95h-66L612.3,59.6z"/>
</svg>
